<?xml version="1.0" encoding="iso-8859-1"?>
<!-- Generator: Adobe Illustrator 22.1.0, SVG Export Plug-In . SVG Version: 6.00 Build 0)  -->
<svg version="1.1" id="Capa_1" xmlns="http://www.w3.org/2000/svg" xmlns:xlink="http://www.w3.org/1999/xlink" x="0px" y="0px"
	 viewBox="0 0 459.102 221.431" style="enable-background:new 0 0 459.102 221.431;" xml:space="preserve">
<g>
	<g>
		<g>
			<path style="fill:#FFFFFF;" d="M40.014,44.536c0-0.761-0.171-1.537-0.517-2.336c-0.348-0.794-0.726-1.54-1.141-2.232
				c-0.486-0.758-1.005-1.557-1.557-2.386H57.66c2.285,0,4.41,0.433,6.382,1.298c1.975,0.867,3.701,2.041,5.191,3.528
				c1.489,1.492,2.663,3.22,3.53,5.191c0.864,1.973,1.298,4.1,1.298,6.382v27.195c0,2.283-0.433,4.41-1.298,6.382
				c-0.867,1.97-2.041,3.704-3.53,5.191c-1.489,1.489-3.215,2.663-5.191,3.528c-1.973,0.867-4.097,1.3-6.382,1.3l-7.161-0.106
				v18.578c0,0.622,0.156,1.298,0.469,2.026c0.31,0.726,0.673,1.434,1.089,2.127c0.484,0.763,1.036,1.524,1.658,2.283H36.799
				c0.552-0.69,1.071-1.416,1.557-2.18c0.416-0.622,0.794-1.262,1.141-1.918c0.345-0.658,0.517-1.23,0.517-1.716V44.536z
				 M63.266,53.98c0-1.592-0.537-2.923-1.61-3.996c-1.073-1.073-2.404-1.61-3.996-1.61h-7.161v38.408h7.161
				c1.592,0,2.923-0.554,3.996-1.663c1.073-1.104,1.61-2.421,1.61-3.943V53.98z"/>
			<path style="fill:#FFFFFF;" d="M183.495,120.512c0.413-0.554,0.794-1.157,1.141-1.817c0.343-0.653,0.519-1.328,0.519-2.023
				V48.687h-7.161c-0.831,0-1.749,0.295-2.752,0.882c-1.003,0.59-1.92,1.265-2.752,2.023c-1.038,0.832-2.041,1.769-3.011,2.804
				l2.908-15.779h36.846l2.91,15.779c-0.973-1.036-1.973-1.973-3.014-2.804c-0.9-0.758-1.852-1.434-2.852-2.023
				c-1.005-0.587-1.923-0.882-2.752-0.882h-7.577v68.196c0,0.62,0.171,1.26,0.517,1.915c0.348,0.66,0.728,1.267,1.144,1.819
				c0.484,0.69,1.071,1.315,1.764,1.867h-17.54C182.457,121.865,183.008,121.205,183.495,120.512"/>
			<path style="fill:#FFFFFF;" d="M289.407,122.486c0.69-0.761,1.28-1.524,1.764-2.283c0.416-0.693,0.781-1.489,1.091-2.389
				c0.312-0.897,0.398-1.832,0.26-2.802c-0.139-0.97-0.277-1.953-0.413-2.961c-0.141-1-0.28-1.882-0.418-2.646
				c-0.136-0.897-0.277-1.797-0.413-2.699h-13.806l-1.141,8.512c-0.141,0.832-0.053,1.678,0.26,2.545
				c0.312,0.867,0.675,1.645,1.089,2.336c0.484,0.829,1.041,1.625,1.663,2.386h-16.92c0.557-0.554,1.038-1.141,1.454-1.764
				c0.348-0.554,0.673-1.126,0.985-1.713c0.31-0.587,0.534-1.159,0.675-1.713c0.068-0.277,0.224-1.487,0.466-3.633
				c0.244-2.142,0.587-4.911,1.038-8.303c0.451-3.389,0.932-7.211,1.454-11.47c0.519-4.256,1.053-8.597,1.608-13.027
				c0.554-4.427,1.091-8.751,1.61-12.972c0.519-4.223,1-8.01,1.454-11.367c0.448-3.356,0.794-6.09,1.036-8.202
				c0.242-2.109,0.398-3.271,0.469-3.477c0.139-0.758,0.035-1.537-0.312-2.333c-0.343-0.796-0.726-1.54-1.139-2.232
				c-0.489-0.761-1.038-1.555-1.663-2.386h25.742c-0.693,0.831-1.28,1.625-1.764,2.386c-0.416,0.693-0.776,1.436-1.091,2.232
				c-0.31,0.796-0.398,1.504-0.26,2.127c0,0.139,0.139,1.245,0.416,3.321c0.277,2.076,0.622,4.757,1.038,8.045
				c0.416,3.288,0.882,7.043,1.401,11.263c0.517,4.221,1.038,8.527,1.555,12.921c0.519,4.394,1.041,8.701,1.557,12.924
				c0.519,4.218,1.005,8.025,1.454,11.417c0.451,3.392,0.814,6.191,1.089,8.406c0.28,2.215,0.454,3.462,0.522,3.737
				c0.139,0.622,0.38,1.28,0.728,1.97c0.343,0.693,0.688,1.315,1.036,1.87c0.418,0.693,0.897,1.351,1.454,1.973H289.407z
				 M289.823,96.225l-5.397-46.708l-5.4,46.708H289.823z"/>
			<path style="fill:#FFFFFF;" d="M336.218,111.484c0.97-0.416,1.849-0.9,2.648-1.454c0.796-0.554,1.504-1.109,2.129-1.66
				c0.622-0.554,1.071-1.003,1.348-1.348l-3.53,15.464h-29.269c0.622-0.829,1.174-1.661,1.661-2.489
				c0.416-0.761,0.796-1.575,1.139-2.442c0.348-0.867,0.522-1.711,0.522-2.542v-0.207V44.641c0-1.038-0.174-1.975-0.522-2.802
				c-0.343-0.831-0.723-1.522-1.139-2.079c-0.486-0.688-1.003-1.28-1.557-1.764h17.333c-1.109,0.693-1.938,1.66-2.492,2.908
				c-0.554,1.242-0.829,2.351-0.829,3.321v67.882h9.756C334.315,112.106,335.247,111.897,336.218,111.484"/>
			<path style="fill:#FFFFFF;" d="M348.154,120.512c0.416-0.554,0.796-1.157,1.141-1.817c0.345-0.653,0.519-1.328,0.519-2.023
				V48.687h-7.161c-0.829,0-1.749,0.295-2.752,0.882c-1.003,0.59-1.918,1.265-2.749,2.023c-1.038,0.832-2.041,1.769-3.011,2.804
				l2.908-15.779h36.846l2.908,15.779c-0.97-1.036-1.973-1.973-3.011-2.804c-0.9-0.758-1.852-1.434-2.855-2.023
				c-1.003-0.587-1.923-0.882-2.752-0.882h-7.574v68.196c0,0.62,0.169,1.26,0.517,1.915c0.348,0.66,0.728,1.267,1.141,1.819
				c0.484,0.69,1.071,1.315,1.766,1.867h-17.542C347.116,121.865,347.668,121.205,348.154,120.512"/>
			<path style="fill:#FFFFFF;" d="M168.433,122.448c0,0-4.402-3.255-4.45-6.367c-0.05-3.107,0-20.619,0-20.619
				s0.043-5.528-6.128-9.643c2.421-1.409,6.493-4.573,6.493-9.96c0-4.992-0.04-9.661-0.06-11.853v-10.23
				c0-2.285-0.433-4.41-1.3-6.385c-0.864-1.973-2.041-3.699-3.528-5.188c-1.489-1.489-3.218-2.666-5.191-3.533
				c-1.97-0.862-4.097-1.295-6.382-1.295h-20.654c0.552,0.764,1.071,1.524,1.557,2.285c0.416,0.69,0.794,1.469,1.141,2.333
				c0.345,0.867,0.517,1.749,0.517,2.648v70.578c0,0.763-0.171,1.56-0.517,2.391c-0.348,0.829-0.726,1.623-1.141,2.384
				c-0.486,0.831-1.005,1.66-1.557,2.489h16.92c-0.625-0.758-1.179-1.517-1.661-2.28c-0.416-0.693-0.781-1.434-1.091-2.232
				c-0.312-0.791-0.469-1.643-0.469-2.542V94.67v-1.557l7.242-3.064c0.595,0.108,5.236,1.184,5.236,9.144v23.255H168.433z
				 M140.933,48.168h6.954c1.59,0,2.923,0.539,3.996,1.615c1.073,1.076,1.61,2.411,1.61,4.006v14.887l-0.224,6.073
				c0,0-0.04,4.112-3.923,5.357l-8.413,3.19v-1.603V48.168z"/>
			<path style="fill:#FFFFFF;" d="M120.185,104.272l-0.015,0.005V55.089l0.018,0.008c0,0-0.01-0.118-0.018-0.318V54.21
				c0.04-1.489,0.454-4.553,2.958-6.871c0,0-5.974-0.295-8.61-3.923c-3.298-4.533-6.912-6.74-11.591-6.927v-0.018h-0.643h-0.013
				h-0.103h-0.096h-0.013h-0.711v0.02c-4.646,0.204-8.239,2.414-11.523,6.924c-2.638,3.628-8.61,3.923-8.61,3.923
				c3.147,2.928,2.918,7.776,2.918,7.776l0.015-0.008v49.188l-0.018-0.01c0,0,0.013,0.139,0.018,0.358v0.496
				c-0.033,1.474-0.433,4.571-2.956,6.909c0,0,5.974,0.295,8.61,3.923c3.449,4.74,7.242,6.942,12.243,6.942h0.159h0.04h0.103
				c0.222-0.005,0.491-0.008,0.509-0.008V122.9c4.699-0.179,8.325-2.386,11.631-6.929c2.638-3.628,8.612-3.923,8.612-3.923
				C119.956,109.117,120.185,104.272,120.185,104.272 M94.947,53.872L94.947,53.872v-0.315c0-1.202,0.343-2.338,1.018-3.412
				c1.255-2.134,3.55-3.57,6.206-3.57c2.656,0,4.974,1.429,6.244,3.553c0.706,1.078,1.063,2.222,1.063,3.429l-0.058,51.982
				c0,4.019-3.255,7.272-7.272,7.272c-3.109,0-5.725-1.968-6.75-4.717c-0.048-0.121-0.091-0.242-0.131-0.365
				c-0.008-0.023-0.015-0.043-0.023-0.063c-0.144-0.446-0.237-0.902-0.275-1.366C94.945,106.043,94.947,53.872,94.947,53.872"/>
			<path style="fill:#FFFFFF;" d="M256.553,88.566l-0.013,0.005V55.089l0.015,0.008c0,0-0.01-0.118-0.015-0.318V54.21
				c0.04-1.489,0.454-4.553,2.958-6.871c0,0-5.977-0.295-8.612-3.923c-3.298-4.533-6.909-6.74-11.588-6.927l-0.003-0.018h-0.643
				h-0.01h-0.103h-0.098h-0.013h-0.708l-0.003,0.02c-4.646,0.204-8.239,2.414-11.52,6.924c-2.638,3.628-8.612,3.923-8.612,3.923
				c3.147,2.928,2.92,7.776,2.92,7.776l0.015-0.008v33.482l-0.02-0.008c0,0,0.015,0.134,0.02,0.358v0.494
				c-0.035,1.472-0.436,4.571-2.958,6.907c0,0,5.974,0.297,8.612,3.923c3.45,4.745,7.239,6.947,12.241,6.947
				c0.01,0,0.073,0,0.159-0.003l0.04,0.003c0.035,0,0.071-0.003,0.103-0.003c0.224-0.003,0.491-0.005,0.514-0.005l-0.003-0.01
				c4.699-0.174,8.323-2.379,11.631-6.929c2.638-3.626,8.61-3.923,8.61-3.923C256.324,93.409,256.553,88.566,256.553,88.566
				 M231.315,53.872L231.315,53.872v-0.315c0-1.202,0.343-2.338,1.018-3.412c1.257-2.134,3.553-3.57,6.209-3.57
				s4.971,1.429,6.241,3.553c0.706,1.078,1.063,2.222,1.063,3.429l-0.058,36.277c0,4.016-3.255,7.272-7.272,7.272
				c-3.109,0-5.725-1.965-6.75-4.719c-0.048-0.118-0.091-0.239-0.131-0.36l-0.02-0.068c-0.144-0.446-0.239-0.897-0.275-1.363
				C231.313,90.338,231.315,53.872,231.315,53.872"/>
			<path style="fill:#FFFFFF;" d="M419.359,104.272l-0.015,0.005V55.089l0.018,0.008c0,0-0.01-0.118-0.018-0.318V54.21
				c0.043-1.489,0.454-4.553,2.958-6.871c0,0-5.974-0.295-8.612-3.923c-3.296-4.533-6.909-6.74-11.588-6.927v-0.018h-0.643h-0.01
				h-0.106h-0.098h-0.01h-0.708v0.02c-4.651,0.204-8.242,2.414-11.523,6.924c-2.638,3.628-8.612,3.923-8.612,3.923
				c3.147,2.928,2.92,7.776,2.92,7.776l0.015-0.008v49.188l-0.02-0.01c0,0,0.013,0.139,0.02,0.358v0.496
				c-0.038,1.474-0.436,4.571-2.958,6.909c0,0,5.972,0.295,8.61,3.923c3.449,4.74,7.242,6.942,12.243,6.942h0.159h0.038h0.106
				c0.224-0.005,0.489-0.008,0.512-0.008V122.9c4.699-0.179,8.325-2.386,11.629-6.929c2.638-3.628,8.612-3.923,8.612-3.923
				C419.129,109.117,419.359,104.272,419.359,104.272 M394.121,53.872L394.121,53.872v-0.315c0-1.202,0.345-2.338,1.021-3.412
				c1.255-2.134,3.548-3.57,6.206-3.57c2.656,0,4.971,1.429,6.241,3.553c0.706,1.078,1.063,2.222,1.063,3.429l-0.058,51.982
				c0,4.019-3.255,7.272-7.272,7.272c-3.109,0-5.725-1.968-6.75-4.717c-0.048-0.121-0.091-0.242-0.131-0.365l-0.02-0.063
				c-0.144-0.446-0.239-0.902-0.275-1.366C394.118,106.043,394.121,53.872,394.121,53.872"/>
			<path style="fill:#FFFFFF;" d="M230.769,221.431c-42.326,0-83.645-9.215-119.486-26.651
				c-31.338-15.249-65.626-23.31-99.161-23.31H0V16.97h8.489c5.196,0,9.421-4.226,9.421-9.421V0H441.19v9.016
				c0,4.387,3.568,7.955,7.952,7.955h9.961v154.5h-10.845c-33.16,0-66.675,7.874-96.914,22.773
				C315.243,212.03,273.549,221.431,230.769,221.431 M2.827,168.643h9.295c33.958,0,68.678,8.156,100.401,23.592
				c35.455,17.25,76.345,26.369,118.246,26.369c42.349,0,83.61-9.3,119.322-26.898c30.63-15.088,64.576-23.063,98.166-23.063h8.015
				V19.8h-7.131c-5.944,0-10.782-4.838-10.782-10.784V2.827H20.737v4.722c0,6.755-5.493,12.251-12.248,12.251H2.827V168.643z"/>
			<path style="fill:#FFFFFF;" d="M230.769,214.833c-41.334,0-81.652-8.988-116.595-25.988
				C81.939,173.16,46.65,164.87,12.122,164.87H6.599V23.568h5.183c7.02,0,12.727-5.707,12.727-12.725V6.6H434.59v4.243
				c0,7.017,5.71,12.725,12.727,12.725h5.186V164.87h-4.243c-34.17,0-68.69,8.111-99.834,23.456
				C313.227,205.669,272.544,214.833,230.769,214.833 M15.083,156.406c34.86,0.459,70.336,9.013,102.802,24.812
				c33.795,16.441,72.83,25.129,112.884,25.129c40.482,0,79.87-8.862,113.907-25.633c31.015-15.28,65.271-23.645,99.34-24.285
				V31.798c-8.741-1.371-15.731-8.103-17.484-16.713H32.567c-1.754,8.61-8.743,15.343-17.484,16.713V156.406z"/>
			<path style="fill:#FFFFFF;" d="M115.307,148.485c-1.091,1.089-2.646,1.577-4.364,1.577h-5.964v-16.519h5.964
				c1.718,0,3.273,0.486,4.364,1.577c1.855,1.855,1.671,4.132,1.671,6.614C116.977,144.214,117.161,146.628,115.307,148.485
				 M113.054,137.441c-0.557-0.675-1.3-1.02-2.414-1.02h-2.437v10.767h2.437c1.114,0,1.857-0.35,2.414-1.023
				c0.605-0.743,0.698-1.928,0.698-4.43C113.752,139.228,113.659,138.182,113.054,137.441"/>
			<rect x="119.921" y="133.545" style="fill:#FFFFFF;" width="3.225" height="16.519"/>
			<path style="fill:#FFFFFF;" d="M131.196,150.2c-2.505,0-4.41-0.532-6.032-2.18l2.089-2.089c1.043,1.046,2.459,1.391,3.991,1.391
				c1.902,0,2.923-0.718,2.923-2.038c0-0.582-0.164-1.068-0.511-1.393c-0.323-0.302-0.695-0.464-1.461-0.58l-1.996-0.28
				c-1.414-0.209-2.459-0.65-3.2-1.368c-0.789-0.789-1.184-1.855-1.184-3.248c0-2.948,2.182-5.012,5.753-5.012
				c2.275,0,3.923,0.557,5.337,1.925l-2.041,2.018c-1.043-0.995-2.298-1.136-3.387-1.136c-1.716,0-2.552,0.952-2.552,2.086
				c0,0.421,0.139,0.859,0.489,1.184c0.323,0.302,0.857,0.559,1.529,0.653l1.948,0.277c1.509,0.207,2.459,0.625,3.157,1.275
				c0.879,0.837,1.275,2.044,1.275,3.505C137.321,148.391,134.655,150.2,131.196,150.2"/>
			<polygon style="fill:#FFFFFF;" points="143.236,136.42 143.236,140.48 149.757,140.48 149.757,143.36 143.236,143.36 
				143.236,150.062 140.01,150.062 140.01,133.543 150.893,133.543 150.893,136.42 			"/>
			<path style="fill:#FFFFFF;" d="M162.122,150.062l-3.225-6.589h-2.323v6.589h-3.223v-16.519h6.473
				c3.364,0,5.359,2.298,5.359,5.057c0,2.321-1.416,3.759-3.016,4.339l3.689,7.123H162.122z M159.615,136.42h-3.041v4.362h3.041
				c1.416,0,2.343-0.907,2.343-2.182C161.958,137.322,161.031,136.42,159.615,136.42"/>
			<path style="fill:#FFFFFF;" d="M173.999,150.2c-3.387,0-6.08-2.293-6.08-5.798v-10.858h3.225v10.739
				c0,1.905,1.114,3.039,2.855,3.039c1.739,0,2.878-1.134,2.878-3.039v-10.739h3.203v10.858
				C180.079,147.907,177.385,150.2,173.999,150.2"/>
			<polygon style="fill:#FFFFFF;" points="189.635,136.42 189.635,150.062 186.41,150.062 186.41,136.42 182.096,136.42 
				182.096,133.543 193.952,133.543 193.952,136.42 			"/>
			<path style="fill:#FFFFFF;" d="M204.228,150.062l-0.973-2.923h-5.871l-0.998,2.923h-3.364l6.01-16.519h2.53l6.032,16.519H204.228
				z M200.377,138.416l-2.089,6.01h4.107L200.377,138.416z"/>
			<path style="fill:#FFFFFF;" d="M223.715,150.062l-0.975-2.923h-5.866l-1,2.923h-3.364l6.01-16.519h2.53l6.032,16.519H223.715z
				 M219.865,138.416l-2.089,6.01h4.107L219.865,138.416z"/>
			<path style="fill:#FFFFFF;" d="M243.805,148.391c-1.159,1.162-2.575,1.809-4.452,1.809c-1.88,0-3.321-0.648-4.48-1.809
				c-1.671-1.668-1.623-3.734-1.623-6.589c0-2.852-0.048-4.916,1.623-6.589c1.159-1.159,2.6-1.809,4.48-1.809
				c1.877,0,3.293,0.65,4.452,1.809c1.671,1.673,1.65,3.737,1.65,6.589C245.456,144.657,245.476,146.723,243.805,148.391
				 M241.417,137.163c-0.464-0.534-1.184-0.884-2.064-0.884c-0.884,0-1.625,0.35-2.089,0.884c-0.625,0.693-0.789,1.461-0.789,4.639
				c0,3.18,0.164,3.943,0.789,4.644c0.464,0.532,1.204,0.877,2.089,0.877c0.879,0,1.6-0.345,2.064-0.877
				c0.627-0.7,0.814-1.464,0.814-4.644C242.23,138.625,242.044,137.856,241.417,137.163"/>
			<polygon style="fill:#FFFFFF;" points="254.248,136.42 254.248,150.062 251.023,150.062 251.023,136.42 246.704,136.42 
				246.704,133.543 258.562,133.543 258.562,136.42 			"/>
			<path style="fill:#FFFFFF;" d="M269.604,150.062l-3.225-6.589h-2.321v6.589h-3.225v-16.519h6.473
				c3.364,0,5.359,2.298,5.359,5.057c0,2.321-1.414,3.759-3.014,4.339l3.689,7.123H269.604z M267.1,136.42h-3.041v4.362h3.041
				c1.416,0,2.343-0.907,2.343-2.182C269.443,137.322,268.516,136.42,267.1,136.42"/>
			<path style="fill:#FFFFFF;" d="M285.658,148.391c-1.159,1.162-2.575,1.809-4.452,1.809c-1.88,0-3.318-0.648-4.48-1.809
				c-1.668-1.668-1.623-3.734-1.623-6.589c0-2.852-0.045-4.916,1.623-6.589c1.162-1.159,2.6-1.809,4.48-1.809
				c1.877,0,3.293,0.65,4.452,1.809c1.673,1.673,1.65,3.737,1.65,6.589C287.308,144.657,287.331,146.723,285.658,148.391
				 M283.269,137.163c-0.464-0.534-1.184-0.884-2.064-0.884c-0.882,0-1.625,0.35-2.089,0.884c-0.625,0.693-0.786,1.461-0.786,4.639
				c0,3.18,0.161,3.943,0.786,4.644c0.464,0.532,1.207,0.877,2.089,0.877c0.879,0,1.6-0.345,2.064-0.877
				c0.627-0.7,0.811-1.464,0.811-4.644C284.08,138.625,283.896,137.856,283.269,137.163"/>
			<polygon style="fill:#FFFFFF;" points="305.054,150.062 298.511,139.925 298.511,150.062 295.285,150.062 295.285,133.543 
				298.165,133.543 304.704,143.657 304.704,133.543 307.929,133.543 307.929,150.062 			"/>
			<rect x="311.433" y="133.545" style="fill:#FFFFFF;" width="3.223" height="16.519"/>
			<polygon style="fill:#FFFFFF;" points="324.169,150.062 321.755,150.062 316.302,133.543 319.644,133.543 322.965,144.307 
				326.281,133.543 329.644,133.543 			"/>
			<polygon style="fill:#FFFFFF;" points="331.293,150.062 331.293,133.543 342.173,133.543 342.173,136.42 334.515,136.42 
				334.515,140.293 341.039,140.293 341.039,143.173 334.515,143.173 334.515,147.185 342.173,147.185 342.173,150.062 			"/>
			<polygon style="fill:#FFFFFF;" points="344.98,150.062 344.98,133.543 348.203,133.543 348.203,147.185 355.699,147.185 
				355.699,150.062 			"/>
			<rect x="36.354" y="141.459" style="fill:#FFFFFF;" width="56.764" height="2.255"/>
			<rect x="364.436" y="141.459" style="fill:#FFFFFF;" width="56.764" height="2.255"/>
			
				<rect x="233.507" y="115.884" transform="matrix(0.7071 -0.7071 0.7071 0.7071 -15.0764 202.7423)" style="fill:#FFFFFF;" width="7.371" height="7.371"/>
		</g>
	</g>
</g>
<g>
</g>
<g>
</g>
<g>
</g>
<g>
</g>
<g>
</g>
<g>
</g>
</svg>
